<?xml version="1.0" encoding="UTF-8" standalone="no"?>
<svg
   xmlns:dc="http://purl.org/dc/elements/1.1/"
   xmlns:cc="http://creativecommons.org/ns#"
   xmlns:rdf="http://www.w3.org/1999/02/22-rdf-syntax-ns#"
   xmlns:svg="http://www.w3.org/2000/svg"
   xmlns="http://www.w3.org/2000/svg"
   xmlns:sodipodi="http://sodipodi.sourceforge.net/DTD/sodipodi-0.dtd"
   xmlns:inkscape="http://www.inkscape.org/namespaces/inkscape"
   width="210mm"
   height="297mm"
   viewBox="0 0 210 297"
   version="1.1"
   id="svg8"
   inkscape:version="1.0.1 (1.0.1+r74)"
   sodipodi:docname="dibujo.svg">
  <defs
     id="defs2" />
  <sodipodi:namedview
     id="base"
     pagecolor="#ffffff"
     bordercolor="#666666"
     borderopacity="1.0"
     inkscape:pageopacity="0.0"
     inkscape:pageshadow="2"
     inkscape:zoom="0.35"
     inkscape:cx="533.16317"
     inkscape:cy="561.57237"
     inkscape:document-units="mm"
     inkscape:current-layer="layer1"
     inkscape:document-rotation="0"
     showgrid="false"
     inkscape:window-width="1333"
     inkscape:window-height="684"
     inkscape:window-x="0"
     inkscape:window-y="28"
     inkscape:window-maximized="0" />
  <metadata
     id="metadata5">
    <rdf:RDF>
      <cc:Work
         rdf:about="">
        <dc:format>image/svg+xml</dc:format>
        <dc:type
           rdf:resource="http://purl.org/dc/dcmitype/StillImage" />
        <dc:title></dc:title>
      </cc:Work>
    </rdf:RDF>
  </metadata>
  <g
     inkscape:label="Capa 1"
     inkscape:groupmode="layer"
     id="layer1">
    <ellipse
       style="fill:#ff6600;stroke-width:0.264583"
       id="path10"
       cx="104.82619"
       cy="143.61105"
       rx="52.163227"
       ry="52.490532"
       transform="rotate(-0.09702408)" />
    <path
       sodipodi:type="star"
       style="fill:#aa0000;stroke-width:0.264583"
       id="path28"
       sodipodi:sides="5"
       sodipodi:cx="104.26615"
       sodipodi:cy="143.71967"
       sodipodi:r1="8.9725666"
       sodipodi:r2="51.598146"
       sodipodi:arg1="0.95071541"
       sodipodi:arg2="-1.041085"
       inkscape:flatsided="false"
       inkscape:rounded="0"
       inkscape:randomized="0"
       d="M 109.48012,151.02182 130.33788,99.192894 98.932592,150.93493 154.67024,154.75582 95.755863,140.87679 109.34586,195.06716 104.34006,134.7474 57.001499,164.418 112.82212,141.01738 69.975282,105.16445 Z"
       inkscape:transform-center-x="-0.022838693"
       inkscape:transform-center-y="-0.83505444" />
    <path
       style="fill:#aa0000;stroke-width:0.264583"
       id="path42"
       d="m 144.56461,213.42639 c -0.95687,-5.06306 -0.39463,-10.12676 0.45391,-15.15207 0.68502,-2.47276 0.92949,-3.87187 2.14232,-6.16603 2.84787,-5.3869 7.60679,-9.55947 11.91667,-13.73558 5.78078,-5.51436 12.18291,-10.36075 17.83811,-16.0101 1.04295,-1.04186 2.02986,-2.13835 3.0448,-3.20752 2.87157,-3.25464 5.14364,-7.05727 6.62052,-11.14882 1.61863,-4.48424 2.16952,-9.22593 2.76418,-13.92034 0.55186,-5.80714 0.31959,-2.9874 0.70914,-8.45821 0,0 -9.42111,4.72764 -9.42111,4.72764 v 0 c -0.27731,5.37326 -0.0892,2.6016 -0.58254,8.3137 -0.5077,3.69473 -0.67704,5.75815 -1.62422,9.36734 -1.48117,5.6439 -4.16073,10.82261 -8.10948,15.13729 -6.55157,6.77312 -13.85267,12.71913 -20.75393,19.12482 -4.42918,4.32732 -9.26699,8.65137 -12.08204,14.28253 -1.15227,2.30497 -1.4164,3.91045 -2.03861,6.37808 -0.83038,5.21399 -1.32752,10.45045 -0.7963,15.72914 0,0 9.91858,-5.26187 9.91858,-5.26187 z" />
    <path
       style="fill:#aa0000;stroke-width:0.326756"
       id="path42-3"
       d="m 14.934894,136.11338 c 6.869558,1.97595 12.857084,5.40595 18.630372,9.088 2.685354,2.06778 4.287927,3.10078 6.443849,5.57164 5.062288,5.80181 7.499745,12.73886 10.20257,19.24824 3.516782,8.68123 5.839542,17.57559 9.597622,26.21375 0.69307,1.59307 1.486819,3.16372 2.230225,4.74558 2.389643,4.60672 5.811027,8.95273 10.054769,12.70278 4.651048,4.10997 10.243639,7.34522 15.751845,10.59534 6.920609,3.84466 3.539464,2.012 10.135009,5.50925 0,0 -0.420224,-11.71552 -0.420224,-11.71552 v 0 c -6.539129,-3.33414 -3.192274,-1.57118 -10.028377,-5.30558 -4.312171,-2.59597 -6.786781,-3.93647 -10.73688,-6.90415 -6.177003,-4.64074 -11.077483,-10.16259 -14.162972,-16.40553 -4.638472,-10.13774 -7.809991,-20.52036 -11.787074,-30.78289 -2.822059,-6.7099 -5.402567,-13.80898 -10.788495,-19.71888 -2.204594,-2.41907 -4.053073,-3.58875 -6.768548,-5.59348 -6.019112,-3.77244 -12.259903,-7.23881 -19.150985,-9.74523 0,0 0.797294,12.49668 0.797294,12.49668 z" />
    <path
       style="fill:#aa0000;stroke-width:0.264583"
       id="path131"
       d="m 48.942656,93.147022 c 1.241727,-2.192243 2.711741,-4.380278 4.664398,-6.013381 1.639345,-1.371066 3.218817,-2.165959 5.064112,-3.22475 -2.054638,1.261769 -4.333944,2.215335 -6.163908,3.785309 -0.883423,0.75791 2.14671,-0.905272 3.247591,-1.283327 4.674658,-1.605338 9.553167,-2.362158 14.431989,-3.007162 6.567439,-0.724312 13.180745,-0.815398 19.780916,-0.854241 5.256088,0.0028 10.513766,-0.100592 15.756906,0.312592 6.02219,0.519081 12.00733,1.359511 18.00081,2.124641 6.03973,0.690525 12.1596,1.212326 18.2252,0.497634 1.1671,-0.137515 2.32106,-0.369811 3.48159,-0.554718 7.56285,-1.587603 13.52517,-5.417365 20.03656,-9.782336 1.38462,-0.92819 3.00362,-3.679516 3.83654,-4.928103 2.29259,-3.832889 4.0825,-7.911952 5.69261,-12.066341 0,0 -9.77141,4.537675 -9.77141,4.537675 v 0 c -1.53865,4.089525 -3.2832,8.101426 -5.69302,11.768434 -0.68435,0.901809 -1.30197,1.858391 -2.05305,2.705423 -2.62468,2.959978 -6.87947,4.723209 5.0177,-1.897425 0.80975,-0.450617 -1.62479,0.896522 -2.47207,1.271855 -2.47103,1.094642 -3.47008,1.265118 -6.10507,1.998456 -1.1515,0.214889 -2.29463,0.480965 -3.45452,0.644668 -5.99057,0.845478 -12.06232,0.340148 -18.03841,-0.347954 -5.95764,-0.78682 -11.9033,-1.674365 -17.88584,-2.260269 -5.28473,-0.517324 -10.58403,-0.344853 -15.888549,-0.344411 -6.670474,0.05561 -13.346906,0.185335 -19.989887,0.851495 -4.904266,0.589074 -9.806744,1.296538 -14.538902,2.774043 -1.111387,0.347003 -2.248971,0.655484 -3.2854,1.185971 -4.123901,2.110782 -8.109629,4.481264 -12.164446,6.721895 -2.115246,1.311894 -3.216137,1.861021 -5.069408,3.541951 -1.997356,1.81161 -3.461483,4.139271 -4.885071,6.398977 0,0 10.222039,-4.556601 10.222039,-4.556601 z" />
  </g>
</svg>
